<mxfile host="app.diagrams.net" modified="2021-10-21T14:21:23.560Z" agent="5.0 (Windows NT 10.0; Win64; x64) AppleWebKit/537.36 (KHTML, like Gecko) Chrome/95.0.4638.54 Safari/537.36" etag="wyfwZlYQy1h4Mneye1Zz" version="15.5.8" type="github">
  <diagram id="Uhn_6moB0uJkG4MjftD4" name="Page-1">
    <mxGraphModel dx="1422" dy="798" grid="1" gridSize="10" guides="1" tooltips="1" connect="1" arrows="1" fold="1" page="1" pageScale="1" pageWidth="827" pageHeight="1169" math="0" shadow="0">
      <root>
        <mxCell id="0" />
        <mxCell id="1" parent="0" />
        <mxCell id="RiblvqADB9qFJhKNjGHc-3" value="" style="edgeStyle=orthogonalEdgeStyle;rounded=0;orthogonalLoop=1;jettySize=auto;html=1;fontSize=22;" edge="1" parent="1" source="RiblvqADB9qFJhKNjGHc-1" target="RiblvqADB9qFJhKNjGHc-2">
          <mxGeometry relative="1" as="geometry" />
        </mxCell>
        <mxCell id="RiblvqADB9qFJhKNjGHc-5" value="" style="edgeStyle=orthogonalEdgeStyle;rounded=0;orthogonalLoop=1;jettySize=auto;html=1;fontSize=22;" edge="1" parent="1" source="RiblvqADB9qFJhKNjGHc-1" target="RiblvqADB9qFJhKNjGHc-4">
          <mxGeometry relative="1" as="geometry" />
        </mxCell>
        <mxCell id="RiblvqADB9qFJhKNjGHc-1" value="&lt;font style=&quot;font-size: 22px&quot;&gt;&lt;b&gt;&lt;i&gt;Azure Cognitive Services&lt;/i&gt;&lt;/b&gt;&lt;/font&gt;" style="rounded=1;whiteSpace=wrap;html=1;fillColor=#dae8fc;strokeColor=#6c8ebf;" vertex="1" parent="1">
          <mxGeometry x="331" y="200" width="166" height="100" as="geometry" />
        </mxCell>
        <mxCell id="RiblvqADB9qFJhKNjGHc-2" value="Son Servicios cloud-based que encapsulan capacidades I.A (Inteligencia Artificial)&amp;nbsp;" style="ellipse;whiteSpace=wrap;html=1;rounded=1;strokeColor=#6c8ebf;fillColor=#dae8fc;dashed=1;" vertex="1" parent="1">
          <mxGeometry x="200" y="50" width="160" height="90" as="geometry" />
        </mxCell>
        <mxCell id="RiblvqADB9qFJhKNjGHc-4" value="Es un set de servicios individuales&amp;nbsp;" style="ellipse;whiteSpace=wrap;html=1;rounded=1;strokeColor=#6c8ebf;fillColor=#dae8fc;" vertex="1" parent="1">
          <mxGeometry x="470" y="80" width="120" height="60" as="geometry" />
        </mxCell>
      </root>
    </mxGraphModel>
  </diagram>
</mxfile>
